<?xml version="1.0" encoding="utf-8"?>
<svg viewBox="0 0 500 500" width="500" height="500" xmlns="http://www.w3.org/2000/svg">
  <rect x="-0.954" y="-0.954" width="500.954" height="500.954" transform="matrix(1, 0, 0, 1, 0, 0)"/>
  <path d="M 203.548 206.147 C 203.548 218.767 199.901 229.334 192.608 237.847 C 185.308 246.354 173.678 252.054 157.718 254.947 L 210.618 315.587 C 214.265 319.847 218.595 323.077 223.608 325.277 C 228.628 327.484 233.721 328.587 238.888 328.587 L 238.888 337.707 L 184.848 337.707 L 128.308 268.397 C 124.508 263.837 121.201 260.757 118.388 259.157 C 115.575 257.564 112.955 256.767 110.528 256.767 L 110.528 301.457 C 110.528 307.077 110.908 311.674 111.668 315.247 C 112.428 318.82 113.948 321.594 116.228 323.567 C 118.508 325.547 121.811 326.877 126.138 327.557 C 130.471 328.244 136.288 328.587 143.588 328.587 L 143.588 337.707 L 53.068 337.707 L 53.068 328.587 C 58.081 328.587 62.148 328.244 65.268 327.557 C 68.381 326.877 70.811 325.587 72.558 323.687 C 74.311 321.787 75.491 319.127 76.098 315.707 C 76.705 312.287 77.008 307.917 77.008 302.597 L 77.008 197.257 C 77.008 191.937 76.781 187.644 76.328 184.377 C 75.868 181.11 74.878 178.527 73.358 176.627 C 71.838 174.727 69.671 173.434 66.858 172.747 C 64.051 172.067 60.291 171.574 55.578 171.267 L 55.578 162.147 L 134.468 162.147 C 156.508 162.147 173.531 166.024 185.538 173.777 C 197.545 181.53 203.548 192.32 203.548 206.147 Z M 110.528 178.787 L 110.528 243.087 L 125.348 243.087 C 139.635 243.087 150.311 240.314 157.378 234.767 C 164.445 229.22 167.978 220.06 167.978 207.287 C 167.978 197.56 165.015 189.734 159.088 183.807 C 153.161 177.88 144.955 174.917 134.468 174.917 L 114.628 174.917 C 111.895 174.917 110.528 176.207 110.528 178.787 ZM 296.348 182.667 L 296.348 240.577 C 306.075 240.577 313.901 240.274 319.828 239.667 C 325.755 239.06 330.351 237.807 333.618 235.907 C 336.891 234.007 339.211 231.234 340.578 227.587 C 341.945 223.934 343.008 218.994 343.768 212.767 L 352.208 212.767 L 352.208 279.567 L 343.768 279.567 C 342.855 273.487 341.638 268.624 340.118 264.977 C 338.598 261.33 336.168 258.557 332.828 256.657 C 329.481 254.757 324.958 253.54 319.258 253.007 C 313.558 252.474 305.921 252.207 296.348 252.207 L 296.348 299.177 C 296.348 304.037 296.991 308.14 298.278 311.487 C 299.571 314.834 301.738 317.53 304.778 319.577 C 307.818 321.63 311.848 323.077 316.868 323.917 C 321.881 324.75 328.035 325.167 335.328 325.167 C 343.995 325.167 351.331 324.56 357.338 323.347 C 363.338 322.127 368.315 319.997 372.268 316.957 C 376.221 313.917 379.415 309.85 381.848 304.757 C 384.275 299.67 386.325 293.25 387.998 285.497 L 397.118 285.497 L 393.468 337.707 L 238.888 337.707 L 238.888 328.587 C 243.901 328.434 248.005 327.977 251.198 327.217 C 254.391 326.457 256.825 325.167 258.498 323.347 C 260.171 321.52 261.311 318.934 261.918 315.587 C 262.525 312.247 262.828 307.917 262.828 302.597 L 262.828 197.257 C 262.828 191.937 262.561 187.644 262.028 184.377 C 261.495 181.11 260.468 178.527 258.948 176.627 C 257.428 174.727 255.265 173.434 252.458 172.747 C 249.645 172.067 245.958 171.574 241.398 171.267 L 241.398 162.147 L 385.488 162.147 L 387.088 206.837 L 377.288 206.837 C 376.375 200.45 374.928 195.167 372.948 190.987 C 370.975 186.807 368.241 183.464 364.748 180.957 C 361.248 178.45 356.725 176.704 351.178 175.717 C 345.631 174.724 338.828 174.227 330.768 174.227 L 305.008 174.227 C 301.055 174.227 298.621 174.724 297.708 175.717 C 296.801 176.704 296.348 179.02 296.348 182.667 ZM 420.15 323.117 C 420.15 318.25 421.783 314.107 425.05 310.687 C 428.317 307.267 432.383 305.557 437.25 305.557 C 442.263 305.557 446.443 307.267 449.79 310.687 C 453.13 314.107 454.8 318.25 454.8 323.117 C 454.8 327.83 453.13 331.82 449.79 335.087 C 446.443 338.354 442.263 339.987 437.25 339.987 C 432.383 339.987 428.317 338.354 425.05 335.087 C 421.783 331.82 420.15 327.83 420.15 323.117 Z M 420.15 251.067 C 420.15 246.2 421.783 242.057 425.05 238.637 C 428.317 235.217 432.383 233.507 437.25 233.507 C 442.263 233.507 446.443 235.217 449.79 238.637 C 453.13 242.057 454.8 246.2 454.8 251.067 C 454.8 255.78 453.13 259.77 449.79 263.037 C 446.443 266.304 442.263 267.937 437.25 267.937 C 432.383 267.937 428.317 266.304 425.05 263.037 C 421.783 259.77 420.15 255.78 420.15 251.067 Z" transform="matrix(1, 0, 0, 1, 0, 0)" style="fill: rgb(255, 255, 255); white-space: pre;"/>
</svg>